<svg width="500" height="500" viewBox="0 0 500 500" fill="none" xmlns="http://www.w3.org/2000/svg">
<g clip-path="url(#clip0_1663_2)">
<path d="M249.919 499.838C387.945 499.838 499.838 387.945 499.838 249.919C499.838 111.893 387.945 0 249.919 0C111.893 0 0 111.893 0 249.919C0 387.945 111.893 499.838 249.919 499.838Z" fill="#FFBF00"/>
<path fill-rule="evenodd" clip-rule="evenodd" d="M406.777 284.395C406.777 307.514 375.605 409.343 256.891 409.343C187.793 409.343 129.085 365.703 106.486 304.657H73.755C68.5599 304.657 64.144 300.241 64.144 295.046V286.993C64.144 281.797 68.5599 277.382 73.755 277.382H99.2126C97.394 266.991 96.6147 256.34 96.8747 245.43C97.1341 239.715 97.394 233.741 98.1733 228.286H73.755C68.5599 228.286 64.144 223.87 64.144 218.674V210.622C64.144 205.426 68.5599 201.01 73.755 201.01H104.148C124.67 137.107 184.416 90.3491 254.294 89.3098C304.948 88.5305 350.407 111.39 380.281 147.498C382.358 150.095 382.358 153.992 380.021 156.33L353.784 184.125C350.148 188.022 343.653 187.762 340.276 183.346C320.794 158.668 290.661 142.822 256.632 142.822C215.329 142.822 179.481 166.461 161.816 200.75H187.533C192.729 200.75 197.145 205.166 197.145 210.362V218.415C197.145 223.61 192.729 228.026 187.533 228.026H152.464C150.906 236.079 150.127 244.651 150.387 253.223C150.647 261.536 151.945 269.589 154.023 277.122H187.533C192.729 277.122 197.145 281.538 197.145 286.733V294.786C197.145 299.981 192.729 304.397 187.533 304.397H165.973C184.157 333.751 216.108 354.013 252.475 355.312C296.895 357.13 333.003 331.413 348.849 293.747H288.323C283.128 293.747 278.711 289.331 278.711 284.135V250.366C278.711 245.17 283.128 240.754 288.323 240.754H397.165C402.361 240.754 406.777 245.17 406.777 250.366V284.395Z" fill="black"/>
</g>
<defs>
<clipPath id="clip0_1663_2">
<rect width="500" height="500" fill="white"/>
</clipPath>
</defs>
</svg>
